<?xml version="1.0" standalone="no"?>
<!DOCTYPE svg PUBLIC "-//W3C//DTD SVG 20010904//EN"
 "http://www.w3.org/TR/2001/REC-SVG-20010904/DTD/svg10.dtd">
<svg version="1.0" xmlns="http://www.w3.org/2000/svg"
 width="500.000000pt" height="500.000000pt" viewBox="0 0 500.000000 500.000000"
 preserveAspectRatio="xMidYMid meet">
<metadata>
Created by potrace 1.16, written by Peter Selinger 2001-2019
</metadata>
<g transform="translate(0.000000,500.000000) scale(0.100000,-0.100000)"
fill="currentColor" stroke="none">
<path d="M2400 3867 c-3 -2 -43 -7 -90 -10 -87 -5 -161 -20 -310 -64 -87 -26
-370 -159 -370 -174 0 -5 -5 -9 -11 -9 -17 0 -142 -104 -223 -186 -99 -101
-185 -225 -246 -356 -25 -53 -7 -108 36 -108 15 0 64 61 64 78 0 7 3 12 8 12
4 0 25 36 47 80 21 44 43 80 47 80 4 0 8 5 8 11 0 6 11 20 25 31 14 11 25 24
25 30 0 6 10 19 22 29 11 11 18 19 14 19 -7 0 65 73 77 78 4 1 15 10 25 20 56
53 197 152 218 152 7 0 14 4 16 8 4 10 119 65 173 83 22 7 45 17 52 22 7 5 17
6 22 3 5 -4 12 -2 15 3 7 10 112 36 132 33 6 -1 30 5 54 13 49 17 72 19 50 5
-16 -11 -15 -11 80 10 66 14 194 12 282 -5 43 -8 84 -12 92 -9 9 3 35 -2 60
-11 24 -9 50 -14 56 -10 6 4 16 3 23 -3 19 -14 49 -23 42 -12 -9 15 2 12 31
-6 13 -9 27 -14 31 -10 4 3 14 -1 24 -10 10 -9 25 -14 33 -11 9 4 22 0 30 -8
7 -8 16 -11 20 -8 3 3 15 -2 26 -12 11 -10 20 -15 20 -11 0 4 10 -2 22 -14 20
-18 39 -25 61 -21 5 1 6 -2 4 -6 -3 -5 15 -17 39 -28 24 -11 44 -23 44 -27 0
-11 56 -38 63 -31 4 3 9 -2 13 -11 3 -9 10 -16 15 -16 5 0 26 -18 46 -40 21
-22 44 -40 52 -40 8 0 11 -3 8 -7 -10 -9 33 -53 51 -53 9 0 13 -3 9 -6 -3 -3
5 -18 19 -33 14 -14 41 -52 61 -83 20 -32 40 -58 45 -58 5 0 7 -4 3 -9 -3 -6
3 -14 12 -20 10 -6 15 -11 11 -11 -4 0 1 -15 12 -32 11 -18 24 -42 29 -53 5
-11 20 -33 33 -49 19 -22 29 -27 46 -22 38 13 44 39 22 97 -71 179 -251 398
-436 530 -87 62 -289 169 -320 169 -11 0 -25 5 -32 12 -6 6 -20 13 -29 14 -10
1 -58 14 -108 27 -49 14 -112 28 -140 33 -27 4 -57 9 -65 10 -31 6 -315 16
-320 11z"/>
<path d="M2036 2858 c-54 -11 -91 -41 -110 -88 -13 -33 -16 -82 -16 -268 0
-276 9 -314 78 -351 70 -37 195 -27 251 19 37 32 49 83 50 222 l2 128 -96 0
-95 0 0 -49 c0 -46 2 -49 29 -54 34 -7 46 -43 35 -104 -11 -60 -21 -73 -59
-73 -61 0 -65 16 -65 260 0 239 5 260 59 260 43 0 62 -29 64 -97 l2 -58 63 -3
63 -3 -2 68 c-3 85 -14 121 -50 156 -16 15 -30 27 -31 26 -2 0 -14 2 -28 5
-47 11 -105 12 -144 4z"/>
<path d="M500 2449 l0 -411 38 6 c20 3 73 8 117 12 89 6 148 25 183 57 43 40
52 70 52 179 0 105 -10 138 -47 161 -18 11 -16 24 6 46 61 61 52 247 -14 311
-41 40 -56 43 -207 47 l-128 4 0 -412z m230 271 c16 -16 20 -33 20 -88 0 -86
-12 -105 -71 -106 l-44 -1 -3 108 -3 107 41 0 c27 0 47 -7 60 -20z m7 -329
c18 -17 20 -29 18 -101 -2 -65 -6 -84 -21 -95 -24 -18 -90 -19 -96 -2 -7 18
-10 195 -4 205 11 18 81 13 103 -7z"/>
<path d="M972 2533 c2 -245 6 -334 16 -353 7 -14 31 -38 54 -54 36 -26 47 -29
113 -27 117 3 177 46 195 140 5 30 10 181 10 337 l0 284 -70 0 -70 0 0 -311
c0 -285 -1 -313 -17 -325 -26 -20 -57 -17 -79 7 -17 19 -18 42 -19 325 l0 304
-68 0 -68 0 3 -327z"/>
<path d="M1450 2491 c0 -203 3 -371 8 -374 4 -2 33 -1 65 1 l57 4 0 134 c0
100 3 134 13 134 8 0 7 4 -3 10 -12 8 -9 10 13 10 20 0 30 -7 37 -25 5 -14 9
-29 8 -33 -1 -4 4 -20 10 -35 7 -16 12 -35 12 -42 0 -8 4 -24 9 -37 5 -13 14
-42 20 -65 l12 -43 64 0 64 0 -24 88 c-13 48 -33 118 -43 155 -18 63 -18 69
-3 75 23 9 39 27 51 57 14 37 13 228 -2 262 -11 25 -54 72 -68 74 -3 0 -14 3
-25 6 -11 3 -77 8 -147 10 l-128 5 0 -371z m237 233 c8 -11 13 -46 13 -91 0
-90 -19 -116 -78 -111 l-37 3 -2 114 -1 113 46 -5 c28 -3 51 -12 59 -23z"/>
<path d="M2380 2558 c0 -278 2 -306 20 -346 27 -60 78 -82 182 -79 83 3 111
16 152 71 20 26 21 42 24 342 l3 314 -68 0 -68 0 3 -294 c3 -323 2 -326 -57
-326 -60 0 -61 7 -61 328 l0 292 -65 0 -65 0 0 -302z"/>
<path d="M2855 2495 l0 -365 160 2 160 3 3 53 3 52 -95 0 c-85 0 -96 2 -96 18
-1 9 -2 42 -4 72 -6 99 -5 100 80 100 l74 0 0 60 0 60 -74 0 c-41 0 -76 4 -78
10 -1 5 -2 48 0 95 l3 85 84 0 83 0 3 38 c9 86 17 82 -154 82 l-152 0 0 -365z"/>
<path d="M3258 2492 l-3 -371 63 -3 c35 -2 66 1 70 6 3 5 5 61 4 125 -2 132 1
147 27 154 14 3 21 -2 26 -22 42 -174 65 -255 74 -264 13 -13 131 -23 131 -11
0 5 -12 50 -25 99 -14 50 -33 118 -42 153 l-17 62 31 29 c38 35 47 81 41 216
-4 106 -18 134 -79 170 -28 16 -57 20 -166 23 l-133 4 -2 -370z m217 246 c24
-11 25 -14 25 -101 0 -106 -12 -127 -70 -127 l-36 0 -1 103 c0 56 4 110 9 120
10 20 36 22 73 5z"/>
<path d="M3750 2480 l0 -380 28 0 c15 0 44 -3 65 -6 l37 -7 0 387 0 386 -65 0
-65 0 0 -380z"/>
<path d="M4076 2828 c-3 -18 -8 -49 -10 -68 -3 -19 -10 -69 -16 -110 -6 -41
-14 -93 -16 -115 -3 -22 -18 -127 -35 -234 -16 -107 -29 -200 -29 -207 0 -8
21 -15 55 -19 62 -8 70 -8 71 3 0 4 5 32 9 62 5 30 8 60 7 67 -4 20 16 24 78
17 67 -7 65 -5 74 -100 8 -80 12 -84 66 -84 27 0 56 -3 66 -7 23 -8 24 -16
-70 563 -20 121 -36 231 -36 242 0 21 -4 22 -104 22 l-104 0 -6 -32z m143
-366 c20 -129 19 -131 -58 -116 -24 5 -31 11 -26 23 6 14 14 67 30 191 13 95
17 99 30 35 7 -33 18 -93 24 -133z"/>
<path d="M1787 1943 c-4 -3 -7 -42 -7 -85 l0 -78 43 0 c24 0 48 5 55 12 20 20
15 122 -6 141 -18 17 -73 23 -85 10z"/>
<path d="M2250 1866 l0 -84 29 -4 c56 -8 81 17 81 82 0 63 -21 90 -71 90 l-39
0 0 -84z"/>
<path d="M2811 1941 c-18 -12 -26 -98 -12 -134 10 -25 15 -28 48 -25 35 3 38
6 46 44 11 59 -10 118 -43 122 -14 1 -31 -2 -39 -7z"/>
<path d="M3090 1929 c-7 -11 -9 -32 -5 -46 3 -14 1 -31 -6 -39 -9 -11 -9 -21
-1 -39 9 -20 19 -25 46 -25 45 0 54 14 54 85 0 33 -5 66 -10 73 -17 20 -66 15
-78 -9z"/>
<path d="M991 1698 c-17 -28 -13 -56 11 -72 18 -13 57 -16 211 -16 179 0 191
-1 220 -22 34 -24 209 -159 217 -168 22 -23 91 -60 113 -60 48 0 61 29 67 145
l5 105 1037 0 c771 0 1043 3 1062 12 26 11 33 38 20 72 -6 14 -112 16 -1100
16 l-1093 0 -15 -22 c-12 -16 -16 -47 -16 -110 0 -88 -6 -102 -31 -72 -7 9
-33 30 -58 47 -25 17 -52 36 -58 42 -14 12 -40 31 -104 79 l-46 35 -216 3
c-196 3 -216 1 -226 -14z"/>
<path d="M990 1535 c-18 -22 -9 -201 13 -245 32 -65 94 -117 157 -133 48 -12
2583 -10 2627 2 59 16 123 68 150 122 18 33 25 68 29 136 7 106 -3 133 -44
133 -44 0 -52 -16 -52 -110 0 -97 -17 -136 -72 -170 -33 -20 -50 -20 -1333
-18 -1282 3 -1300 3 -1327 23 -44 32 -62 81 -66 175 -3 49 -9 88 -16 92 -19
13 -53 9 -66 -7z"/>
</g>
</svg>
